<?xml version="1.0" encoding="UTF-8"?>
<svg width="46px" height="46px" viewBox="0 0 46 46" version="1.1" xmlns="http://www.w3.org/2000/svg" xmlns:xlink="http://www.w3.org/1999/xlink">
    <!-- Generator: Sketch 59 (86127) - https://sketch.com -->
    <title>icon_save</title>
    <desc>Created with Sketch.</desc>
    <g id="icon_save" stroke="none" stroke-width="1" fill="none" fill-rule="evenodd">
        <circle id="椭圆形" fill="#EEA53C" cx="23" cy="23" r="22"></circle>
        <g id="相册" transform="translate(9.000000, 9.000000)" fill="#FFFFFF" fill-rule="nonzero">
            <path d="M0.654493053,18.2404655 C1.98917798,22.44463 5.25509579,25.7880547 9.41057524,27.2294794 C10.8484383,27.7282466 12.3923835,28 13.9999999,28 C14.1718903,28 14.342767,27.9958082 14.5131506,27.9896712 C21.3638629,27.7426849 26.9589314,22.574219 27.869315,15.9131778 M27.869315,15.9132051 L27.8693156,15.9132004 C27.9561825,15.2791648 28,14.6399593 28,14 C28,6.26802757 21.732,0 14,0 C6.268,0 0,6.26802757 0,14 C0,15.4783018 0.229835616,16.9027676 0.654493151,18.2404663 M21.7239452,12.6695346 C18.4326301,12.6695346 15.3269315,13.7986853 12.8331781,15.8767402 C11.1107397,14.6266031 9.04476712,13.951425 6.88013699,13.951425 C5.04057534,13.951425 3.24013699,14.4593703 1.67830137,15.3891785 L1.67830125,15.3891775 C1.62686947,14.9279144 1.6012052,14.4641473 1.6012052,14.0000267 C1.6012052,7.16331423 7.16328756,1.60123189 13.9999999,1.60123189 C20.66063,1.60123189 26.1114245,6.88035532 26.3877807,13.4742459 C24.8964382,12.9442459 23.3175615,12.6695336 21.7239451,12.6695336 L21.7239452,12.6695346 Z" id="形状"></path>
            <path d="M15.7285035,5.01029828 C15.56244,4.96774117 15.3952213,5.06105298 15.350902,5.21696948 C15.3066109,5.37404933 15.4025468,5.53702712 15.5661309,5.58072054 C18.1711928,6.26926381 20.3555172,8.11052862 21.4096009,10.5056041 C21.4588227,10.6189635 21.5719735,10.6863298 21.6925062,10.6863298 C21.7318386,10.6863298 21.7724669,10.6792414 21.813039,10.6626839 C21.9692412,10.6000792 22.0417919,10.4265231 21.9753834,10.2765315 C20.8487772,7.71604338 18.5143645,5.74726955 15.7285035,5.01029828 Z M10.8449282,8.45691053 C9.82654225,8.45691053 9,9.25056149 9,10.2284553 C9,11.206322 9.82651407,12 10.8449282,12 C11.8632859,12 12.6898282,11.206349 12.6898282,10.2284553 C12.6898282,9.25056149 11.8633423,8.45691053 10.8449282,8.45691053 Z" id="形状"></path>
        </g>
    </g>
</svg>